<svg width="21" height="21" viewBox="0 0 21 21" fill="none" xmlns="http://www.w3.org/2000/svg">
<path d="M20.369 10.8817C20.3698 10.2003 20.3118 9.52008 20.1956 8.84851H10.6998V12.6997H16.1385C16.0272 13.3148 15.7917 13.9011 15.446 14.4234C15.1004 14.9456 14.6519 15.393 14.1275 15.7384V18.2383H17.3734C19.2739 16.4981 20.369 13.9246 20.369 10.8817Z" fill="#4285F4"/>
<path d="M10.6997 20.6537C13.417 20.6537 15.7049 19.7676 17.3734 18.2399L14.1274 15.7401C13.224 16.3484 12.0605 16.6956 10.6997 16.6956C8.07334 16.6956 5.84414 14.9373 5.04699 12.568H1.70319V15.1443C2.54126 16.8004 3.82635 18.1926 5.415 19.1655C7.00364 20.1384 8.8333 20.6536 10.6997 20.6537Z" fill="#34A853"/>
<path d="M5.04698 12.5677C4.62556 11.3261 4.62556 9.98162 5.04698 8.74008V6.16382H1.70317C0.998154 7.55702 0.630981 9.09464 0.630981 10.6539C0.630981 12.2131 0.998154 13.7507 1.70317 15.1439L5.04698 12.5677Z" fill="#FBBC04"/>
<path d="M10.6997 4.61248C12.1357 4.58918 13.5232 5.12797 14.5624 6.1124L17.4363 3.25838C15.6139 1.55857 13.1997 0.625345 10.6997 0.654343C8.8333 0.654427 7.00364 1.16967 5.415 2.14255C3.82635 3.11543 2.54126 4.50765 1.70319 6.16379L5.04699 8.74005C5.84414 6.37072 8.07334 4.61248 10.6997 4.61248Z" fill="#EA4335"/>
</svg>
